<?xml version="1.0" encoding="UTF-8" standalone="no"?>
<!DOCTYPE svg PUBLIC "-//W3C//DTD SVG 1.1//EN" "http://www.w3.org/Graphics/SVG/1.1/DTD/svg11.dtd">
<svg width="100%" height="100%" viewBox="0 0 512 512" version="1.1" xmlns="http://www.w3.org/2000/svg" xmlns:xlink="http://www.w3.org/1999/xlink" xml:space="preserve" xmlns:serif="http://www.serif.com/" style="fill-rule:evenodd;clip-rule:evenodd;stroke-linejoin:round;stroke-miterlimit:2;">
    <rect x="-9.922" y="-14.553" width="553.013" height="531.845" style="fill:rgb(26,34,56);"/>
    <path d="M350.29,21.113L313.365,106.895L353.193,124.039L390.119,38.257L350.289,21.112L350.29,21.113ZM161.928,21.455L121.813,37.915L157.266,124.315L197.381,107.855L161.929,21.455L161.928,21.455ZM192.826,27.805L184.693,31.207L213.463,101.34L220.063,117.434L203.983,123.99L163.871,140.45L147.778,147.05L141.178,130.96L112.614,61.37L101.514,66.014C137.283,113.827 129.275,182.166 83.421,220.414L83.421,256.884L176.931,256.884L176.931,334.932L83.42,334.932L83.42,349.197L176.93,349.197L176.93,427.355L83.42,427.355L83.42,465.693C100.22,482.493 178.115,490.887 256.012,490.887C333.908,490.887 411.804,482.493 428.604,465.693L428.604,427.355L335.092,427.355L335.092,349.21L428.604,349.21L428.604,334.93L335.062,334.93L335.062,256.783L428.57,256.783L428.57,220.323C382.716,182.075 374.708,113.736 410.477,65.923L399.137,61.173L369.137,130.859L362.254,146.845L346.27,139.962L306.496,122.902L290.512,116.019L297.395,100.034L327.078,31.064L319.186,27.804C306.456,50.719 282.219,64.98 256.006,64.98C229.793,64.98 205.556,50.719 192.826,27.804L192.826,27.805ZM66,274.182L66,317.545L159.543,317.545L159.543,274.182L66,274.182ZM352.457,274.182L352.457,317.545L446,317.545L446,274.182L352.457,274.182ZM66,366.604L66,409.969L159.543,409.969L159.543,366.604L66,366.604ZM352.457,366.604L352.457,409.969L446,409.969L446,366.604L352.457,366.604Z" style="fill:white;fill-rule:nonzero;"/>
</svg>
