<?xml version="1.0" encoding="UTF-8" standalone="no"?>
<!DOCTYPE svg PUBLIC "-//W3C//DTD SVG 1.1//EN" "http://www.w3.org/Graphics/SVG/1.1/DTD/svg11.dtd">
<svg width="100%" height="100%" viewBox="0 0 256 256" version="1.1" xmlns="http://www.w3.org/2000/svg" xmlns:xlink="http://www.w3.org/1999/xlink" xml:space="preserve" xmlns:serif="http://www.serif.com/" style="fill-rule:evenodd;clip-rule:evenodd;stroke-linejoin:round;stroke-miterlimit:2;">
    <rect x="0" y="0" width="512" height="512" style="fill:rgb(26,34,56);"/>
    <g transform="matrix(0.538629,0,0,0.538629,-10.7726,-11.1604)">
        <path d="M179.813,20.72L179.813,101.97L135.78,75.624L153.344,122.562L37.688,101.624L122.406,151.53L20,151.53L20,178.875L130.47,193.75L227.063,164.562C215.76,152.692 208.469,133.819 208.469,112.562C208.469,76.636 229.339,47.5 255.093,47.5C280.846,47.5 301.718,76.636 301.718,112.563C301.718,133.41 294.68,151.938 283.748,163.843L382.778,193.75L495.278,178.594L495.278,151.53L394.19,151.53L478.908,101.625L358.471,123.405L376.345,75.687L327.689,104.813L327.689,20.72L179.813,20.72ZM495.28,223.343L382.78,245.78L327.375,232.656L299.345,350.969L315.937,495.969L367.625,495.969L329.25,351.22L375.78,379.062L354.47,322.125L478.906,344.625L387.781,290.937L495.281,290.937L495.281,223.344L495.28,223.343ZM20,223.75L20,290.938L128.813,290.938L37.688,344.625L157.31,322.97L136.345,379L174.815,356L146.22,495.97L194.375,495.97L207.28,351.56L185.595,232.72L130.47,245.78L20,223.75Z" style="fill:white;fill-rule:nonzero;"/>
    </g>
</svg>
