<?xml version="1.0" encoding="UTF-8" standalone="no"?>
<!DOCTYPE svg PUBLIC "-//W3C//DTD SVG 1.1//EN" "http://www.w3.org/Graphics/SVG/1.1/DTD/svg11.dtd">
<svg width="100%" height="100%" viewBox="0 0 512 512" version="1.1" xmlns="http://www.w3.org/2000/svg" xmlns:xlink="http://www.w3.org/1999/xlink" xml:space="preserve" xmlns:serif="http://www.serif.com/" style="fill-rule:evenodd;clip-rule:evenodd;stroke-linejoin:round;stroke-miterlimit:2;">
    <rect x="0" y="0" width="512" height="512" style="fill:rgb(26,34,56);fill-rule:nonzero;"/>
    <g>
        <path d="M119.1,25L119.1,25.1C94.1,28.3 72,57.1 72,93.9C72,114.3 79.1,132.3 89.5,144.8L99.7,157L84,159.9C70.3,162.5 60.2,169.8 51.8,181.4C43.3,192.9 36.9,208.9 32.4,227.2C24.2,260.8 22.5,301.9 22.3,337.7L66.3,337.7L78.2,496.1L174.5,496.1L185,337.7L226.9,337.7C226.9,301.5 226.6,259.9 219.1,226C215.1,207.5 208.9,191.6 200.4,180.1C191.8,168.7 181.2,161.4 165.9,159.1L149.9,156.6L160,144C170,131.5 176.7,113.8 176.7,93.9C176.7,54.7 151.9,25.1 124.3,25.1C121.4,25.1 119.6,25 119.1,25ZM440,33C422.8,33 409,46.77 409,64C409,81.23 422.8,95 440,95C457.2,95 471,81.23 471,64C471,46.77 457.2,33 440,33ZM311,55L311,103L208,103L208,121L311,121L311,279L256,279L256,297L311,297L311,407L208,407L208,425L311,425L311,457L391.8,457C391.3,454.1 391,451.1 391,448C391,444.9 391.3,441.9 391.8,439L329,439L329,297L391.8,297C391.3,294.1 391,291.1 391,288C391,284.9 391.3,281.9 391.8,279L329,279L329,73L391.8,73C391.3,70.08 391,67.07 391,64C391,60.93 391.3,57.92 391.8,55L311,55ZM440,257C422.8,257 409,270.8 409,288C409,305.2 422.8,319 440,319C457.2,319 471,305.2 471,288C471,270.8 457.2,257 440,257ZM440,417C422.8,417 409,430.8 409,448C409,465.2 422.8,479 440,479C457.2,479 471,465.2 471,448C471,430.8 457.2,417 440,417Z" style="fill:rgb(235,231,215);fill-rule:nonzero;"/>
    </g>
</svg>
